<mxfile host="65bd71144e">
    <diagram id="If_quGJAt3Ar4POuKzCw" name="第 1 页">
        <mxGraphModel dx="997" dy="748" grid="1" gridSize="10" guides="1" tooltips="1" connect="1" arrows="1" fold="1" page="1" pageScale="1" pageWidth="827" pageHeight="1169" math="0" shadow="0">
            <root>
                <mxCell id="0"/>
                <mxCell id="1" parent="0"/>
                <mxCell id="2" value="无延迟初始化互动流程" style="swimlane;childLayout=stackLayout;resizeParent=1;resizeParentMax=0;startSize=20;rounded=0;sketch=0;fontColor=#393C56;strokeColor=#E07A5F;fillColor=#F2CC8F;" vertex="1" parent="1">
                    <mxGeometry x="80" y="60" width="680" height="570" as="geometry"/>
                </mxCell>
                <mxCell id="3" value="主持人/嘉宾" style="swimlane;startSize=20;rounded=0;sketch=0;fontColor=#393C56;strokeColor=#E07A5F;fillColor=#F2CC8F;" vertex="1" parent="2">
                    <mxGeometry y="20" width="250" height="550" as="geometry"/>
                </mxCell>
                <mxCell id="50" value="" style="edgeStyle=none;html=1;" edge="1" parent="3" source="5" target="45">
                    <mxGeometry relative="1" as="geometry">
                        <Array as="points">
                            <mxPoint x="181.75" y="60"/>
                        </Array>
                    </mxGeometry>
                </mxCell>
                <mxCell id="62" value="" style="edgeStyle=none;html=1;" edge="1" parent="3" source="5" target="26">
                    <mxGeometry relative="1" as="geometry"/>
                </mxCell>
                <mxCell id="5" value="ROLE_HOST角色&lt;br&gt;初始化互动" style="rounded=1;whiteSpace=wrap;html=1;sketch=0;fontColor=#393C56;strokeColor=#E07A5F;fillColor=#F2CC8F;" vertex="1" parent="3">
                    <mxGeometry x="30" y="40" width="107.5" height="40" as="geometry"/>
                </mxCell>
                <mxCell id="26" value="&lt;div style=&quot;text-align: left&quot;&gt;&lt;span&gt;邀请上麦&lt;/span&gt;&lt;/div&gt;" style="rhombus;whiteSpace=wrap;html=1;fillColor=#F2CC8F;strokeColor=#E07A5F;fontColor=#393C56;rounded=1;sketch=0;" vertex="1" parent="3">
                    <mxGeometry x="3.75" y="180" width="160" height="80" as="geometry"/>
                </mxCell>
                <mxCell id="45" value="&lt;div style=&quot;text-align: left&quot;&gt;&lt;span&gt;是否同意&lt;/span&gt;&lt;/div&gt;" style="rhombus;whiteSpace=wrap;html=1;fillColor=#F2CC8F;strokeColor=#E07A5F;fontColor=#393C56;rounded=1;sketch=0;" vertex="1" parent="3">
                    <mxGeometry x="131" y="150" width="103.75" height="40" as="geometry"/>
                </mxCell>
                <mxCell id="52" value="Y" style="text;html=1;align=center;verticalAlign=middle;resizable=0;points=[];autosize=1;strokeColor=none;fillColor=none;" vertex="1" parent="3">
                    <mxGeometry x="191" y="190" width="20" height="20" as="geometry"/>
                </mxCell>
                <mxCell id="49" value="" style="edgeStyle=none;html=1;" edge="1" parent="2" source="47" target="45">
                    <mxGeometry relative="1" as="geometry"/>
                </mxCell>
                <mxCell id="53" value="" style="edgeStyle=none;html=1;entryX=0;entryY=0.5;entryDx=0;entryDy=0;" edge="1" parent="2" source="45" target="31">
                    <mxGeometry relative="1" as="geometry">
                        <Array as="points">
                            <mxPoint x="182" y="350"/>
                        </Array>
                    </mxGeometry>
                </mxCell>
                <mxCell id="63" style="edgeStyle=none;html=1;entryX=0;entryY=0.5;entryDx=0;entryDy=0;" edge="1" parent="2" source="26" target="24">
                    <mxGeometry relative="1" as="geometry">
                        <Array as="points">
                            <mxPoint x="84" y="290"/>
                            <mxPoint x="330" y="290"/>
                        </Array>
                    </mxGeometry>
                </mxCell>
                <mxCell id="12" value="观众" style="swimlane;startSize=20;rounded=0;sketch=0;fontColor=#393C56;strokeColor=#E07A5F;fillColor=#F2CC8F;" vertex="1" parent="2">
                    <mxGeometry x="250" y="20" width="430" height="550" as="geometry"/>
                </mxCell>
                <mxCell id="25" value="" style="edgeStyle=none;html=1;" edge="1" parent="12" source="22" target="24">
                    <mxGeometry relative="1" as="geometry"/>
                </mxCell>
                <mxCell id="40" value="" style="edgeStyle=none;html=1;exitX=0.5;exitY=1;exitDx=0;exitDy=0;" edge="1" parent="12" source="55">
                    <mxGeometry relative="1" as="geometry">
                        <mxPoint x="200" y="120" as="sourcePoint"/>
                        <mxPoint x="80.5" y="160" as="targetPoint"/>
                        <Array as="points">
                            <mxPoint x="80" y="120"/>
                        </Array>
                    </mxGeometry>
                </mxCell>
                <mxCell id="22" value="ROLE_AUDIENCE角色初始化互动" style="rounded=1;whiteSpace=wrap;html=1;sketch=0;fontColor=#393C56;strokeColor=#E07A5F;fillColor=#F2CC8F;" vertex="1" parent="12">
                    <mxGeometry x="138.13" y="170" width="135" height="40" as="geometry"/>
                </mxCell>
                <mxCell id="24" value="同意" style="rounded=1;whiteSpace=wrap;html=1;sketch=0;fontColor=#393C56;strokeColor=#E07A5F;fillColor=#F2CC8F;" vertex="1" parent="12">
                    <mxGeometry x="153.75" y="255" width="107.5" height="30" as="geometry"/>
                </mxCell>
                <mxCell id="31" value="销毁互动实例" style="rounded=1;whiteSpace=wrap;html=1;sketch=0;fontColor=#393C56;strokeColor=#E07A5F;fillColor=#F2CC8F;" vertex="1" parent="12">
                    <mxGeometry x="153.75" y="315" width="107.5" height="30" as="geometry"/>
                </mxCell>
                <mxCell id="32" value="" style="edgeStyle=none;html=1;" edge="1" parent="12" source="24" target="31">
                    <mxGeometry relative="1" as="geometry"/>
                </mxCell>
                <mxCell id="36" value="" style="edgeStyle=none;html=1;" edge="1" parent="12" source="33" target="35">
                    <mxGeometry relative="1" as="geometry"/>
                </mxCell>
                <mxCell id="33" value="ROLE_HOST角色&lt;br&gt;初始化互动实例" style="rounded=1;whiteSpace=wrap;html=1;sketch=0;fontColor=#393C56;strokeColor=#E07A5F;fillColor=#F2CC8F;" vertex="1" parent="12">
                    <mxGeometry x="153.75" y="365" width="107.5" height="35" as="geometry"/>
                </mxCell>
                <mxCell id="34" value="" style="edgeStyle=none;html=1;" edge="1" parent="12" source="31" target="33">
                    <mxGeometry relative="1" as="geometry"/>
                </mxCell>
                <mxCell id="35" value="开始推流" style="rounded=1;whiteSpace=wrap;html=1;sketch=0;fontColor=#393C56;strokeColor=#E07A5F;fillColor=#F2CC8F;" vertex="1" parent="12">
                    <mxGeometry x="155.62" y="420" width="103.75" height="30" as="geometry"/>
                </mxCell>
                <mxCell id="47" value="申请上麦" style="rounded=1;whiteSpace=wrap;html=1;sketch=0;fontColor=#393C56;strokeColor=#E07A5F;fillColor=#F2CC8F;" vertex="1" parent="12">
                    <mxGeometry x="40" y="160" width="67.5" height="20" as="geometry"/>
                </mxCell>
                <mxCell id="60" value="" style="edgeStyle=none;html=1;" edge="1" parent="12" source="55" target="22">
                    <mxGeometry relative="1" as="geometry"/>
                </mxCell>
                <mxCell id="61" style="edgeStyle=none;html=1;entryX=1;entryY=0.5;entryDx=0;entryDy=0;exitX=1;exitY=0.5;exitDx=0;exitDy=0;" edge="1" parent="12" source="55" target="33">
                    <mxGeometry relative="1" as="geometry">
                        <Array as="points">
                            <mxPoint x="330" y="95"/>
                            <mxPoint x="330" y="383"/>
                        </Array>
                    </mxGeometry>
                </mxCell>
                <mxCell id="55" value="&lt;div style=&quot;text-align: left&quot;&gt;&lt;span&gt;是否在麦上&lt;/span&gt;&lt;/div&gt;" style="rhombus;whiteSpace=wrap;html=1;fillColor=#F2CC8F;strokeColor=#E07A5F;fontColor=#393C56;rounded=1;sketch=0;" vertex="1" parent="12">
                    <mxGeometry x="161.25" y="70" width="88.75" height="50" as="geometry"/>
                </mxCell>
                <mxCell id="59" value="" style="edgeStyle=none;html=1;" edge="1" parent="12" source="58" target="55">
                    <mxGeometry relative="1" as="geometry"/>
                </mxCell>
                <mxCell id="58" value="进入房间" style="rounded=1;whiteSpace=wrap;html=1;sketch=0;fontColor=#393C56;strokeColor=#E07A5F;fillColor=#F2CC8F;" vertex="1" parent="12">
                    <mxGeometry x="174.69" y="30" width="61.88" height="20" as="geometry"/>
                </mxCell>
                <mxCell id="65" value="N" style="text;html=1;align=center;verticalAlign=middle;resizable=0;points=[];autosize=1;strokeColor=none;fillColor=none;" vertex="1" parent="12">
                    <mxGeometry x="216.57000000000005" y="110" width="20" height="20" as="geometry"/>
                </mxCell>
                <mxCell id="64" value="Y" style="text;html=1;align=center;verticalAlign=middle;resizable=0;points=[];autosize=1;strokeColor=none;fillColor=none;" vertex="1" parent="1">
                    <mxGeometry x="580" y="150" width="20" height="20" as="geometry"/>
                </mxCell>
            </root>
        </mxGraphModel>
    </diagram>
</mxfile>